PathFileType	3	(X/Y/Z)	C:\Users\koon_\Desktop\
DataRate	CameraRate	NumFrames	NumMarkers	Units	OrigDataRate	OrigDataStartFrame	OrigNumFrames
100.0	100.0	9	27	mm	100.0	414	3304	
Frame#	Time	GM:LFHD			GM:RFHD			GM:LBHD			GM:RBHD			GM:C7			GM:T10			GM:CLAV			GM:STRN			GM:RBAK			GM:LSHO			GM:LUPA			GM:LELB			GM:LFRA			GM:LWRA			GM:LWRB			GM:LFIN			GM:RSHO			GM:RUPA			GM:RELB			GM:RFRA			GM:RWRA			GM:RWRB			GM:RFIN			GM:LASI			GM:RASI			GM:LPSI			GM:RPSI			
		X1	Y1	Z1	X2	Y2	Z2	X3	Y3	Z3	X4	Y4	Z4	X5	Y5	Z5	X6	Y6	Z6	X7	Y7	Z7	X8	Y8	Z8	X9	Y9	Z9	X10	Y10	Z10	X11	Y11	Z11	X12	Y12	Z12	X13	Y13	Z13	X14	Y14	Z14	X15	Y15	Z15	X16	Y16	Z16	X17	Y17	Z17	X18	Y18	Z18	X19	Y19	Z19	X20	Y20	Z20	X21	Y21	Z21	X22	Y22	Z22	X23	Y23	Z23	X24	Y24	Z24	X25	Y25	Z25	X26	Y26	Z26	X27	Y27	Z27	
414	4.13	-317.10101	1451.9265	30.596704	-381.7554	1441.7411	-109.02627	-199.02246	1479.4106	-25.521914	-283.03116	1465.2251	-165.29057	-157.0365	1342.8374	-125.50204	-43.028324	1200.312	-195.0145	-251.72121	1212.1172	-71.827553	-226.48448	1064.3646	-84.841141	-142.0732	1261.5519	-253.15791	-164.82475	1276.762	59.907887	-190.70436	1221.7178	141.20659	-280.52176	1063.45	227.16632	-418.63257	1076.1541	271.7067	-479.897	1059.4006	311.07663	-467.1225	994.69849	313.13177	-543.94183	1011.5511	369.27921	-321.21051	1270.9724	-227.24084	-476.39865	1146.459	-242.62198	-534.59558	1066.9651	-261.29041	-605.43671	1104.4653	-214.19994	-727.45856	1070.7142	-172.97018	-723.43219	1010.1353	-184.95122	-813.68597	1032.2957	-165.62534	-11.699378	854.49457	-16.102938	-213.38644	848.34131	-227.49507	83.952415	897.65222	-214.939	-27.214321	865.65015	-324.0043
415	4.14	-316.62515	1452.118	30.836811	-381.65579	1441.7513	-108.64831	-198.69228	1479.4845	-25.654884	-283.05048	1465.1272	-165.23541	-156.95322	1342.776	-125.61115	-43.175575	1200.161	-195.18492	-251.57806	1212.1422	-71.666	-226.507	1064.3613	-84.677483	-142.13277	1261.4989	-253.27667	-164.24074	1276.9264	59.843636	-189.86139	1221.5895	141.20184	-279.36771	1063.02	227.0946	-417.51852	1075.4821	271.66824	-478.72427	1058.5946	310.94922	-465.6839	993.93091	313.23276	-542.7005	1010.7541	369.20895	-321.24689	1270.7216	-227.06071	-476.05496	1145.6259	-242.61063	-534.13464	1066.0164	-261.26871	-604.87006	1103.3793	-214.05331	-726.73346	1069.4238	-172.54735	-722.53638	1009.2393	-184.48901	-813.04877	1030.3354	-164.35435	-11.812078	854.39154	-16.077133	-213.71042	848.24524	-227.39673	83.711113	897.49359	-215.13217	-27.565399	865.4826	-324.00906
416	4.15	-315.91461	1452.4426	31.011471	-381.36343	1441.9673	-108.31136	-198.09578	1479.5762	-25.863913	-282.90466	1465.1051	-165.15518	-156.66428	1342.7885	-125.77717	-43.18858	1200.0184	-195.45021	-251.20767	1212.1956	-71.403381	-226.2908	1064.4109	-84.385262	-142.04446	1261.4451	-253.39017	-163.59309	1277.1489	59.761818	-188.8351	1221.4578	141.1996	-278.04736	1062.5203	226.96965	-416.20245	1074.8152	271.46332	-477.38123	1057.8671	310.80466	-464.23624	993.16803	313.15927	-541.17456	1009.9733	369.11859	-321.10208	1270.4812	-226.93399	-475.51352	1144.819	-242.52837	-533.47382	1065.1005	-261.27274	-604.21979	1102.2274	-213.90247	-725.90332	1068.106	-172.25604	-721.55518	1007.9237	-184.2961	-812.05664	1028.865	-163.90912	-11.81192	854.35553	-16.072433	-213.98282	848.21106	-227.15089	83.527184	897.30231	-215.24301	-27.931023	865.37	-324.09937
417	4.16	-314.94476	1452.9135	31.120338	-380.83084	1442.2878	-107.97726	-197.26248	1479.7849	-26.142763	-282.51575	1465.1971	-165.26587	-156.21684	1342.844	-125.95899	-43.090618	1199.8464	-195.66504	-250.86284	1212.3976	-71.182495	-226.17661	1064.5804	-84.131882	-141.79153	1261.4424	-253.55634	-162.73296	1277.5033	59.71875	-187.59013	1221.3597	141.23643	-276.46326	1062.0438	226.7477	-414.54089	1074.1464	271.38837	-475.81741	1057.1027	310.67673	-462.51813	992.42108	313.06149	-539.44269	1009.2356	369.0788	-320.80484	1270.3804	-226.81273	-474.78882	1144.0529	-242.46245	-532.55072	1064.1063	-261.44809	-603.29218	1101.097	-213.80751	-724.85712	1066.6576	-172.07478	-720.43597	1006.4371	-183.71992	-810.80072	1027.0717	-163.74728	-11.731275	854.3078	-16.118668	-214.25877	848.16547	-226.87677	83.396774	897.18597	-215.42572	-28.200529	865.27631	-324.14487
418	4.17	-313.77179	1453.4572	31.139395	-380.04944	1442.798	-107.66313	-196.24164	1480.0826	-26.506563	-281.90659	1465.4196	-165.28693	-155.59102	1343.0021	-126.21948	-42.769421	1199.754	-195.95744	-250.1162	1212.7388	-71.094452	-225.73758	1064.851	-83.911194	-141.34566	1261.4727	-253.67499	-161.72667	1277.7991	59.608143	-186.1524	1221.2194	141.21478	-274.64212	1061.3796	226.37495	-412.70078	1073.4874	271.33234	-473.95782	1056.2915	310.59384	-460.80759	991.63287	312.79361	-537.37958	1008.3302	368.95255	-320.36493	1270.332	-226.74657	-473.95703	1143.3337	-242.40346	-531.49146	1063.1527	-261.66949	-602.14203	1099.9702	-213.9017	-723.5318	1065.2227	-171.9529	-719.13824	1004.7467	-183.89655	-809.52283	1025.3859	-164.27779	-11.6654	854.30853	-16.070902	-214.53476	848.11981	-226.60268	83.285133	897.06067	-215.52791	-28.494225	865.20319	-324.21841
419	4.18	-312.37375	1454.2032	31.150152	-379.14801	1443.4646	-107.46666	-194.89984	1480.4719	-26.933569	-281.07382	1465.8436	-165.51375	-154.79681	1343.2079	-126.52725	-42.381184	1199.7283	-196.29622	-249.36026	1213.1896	-70.89875	-225.26109	1065.2346	-83.607773	-140.75934	1261.5645	-253.91438	-160.50232	1278.2559	59.499413	-184.69495	1221.1276	141.18597	-272.60129	1060.7471	225.98137	-410.59641	1072.7526	271.17377	-471.74426	1055.4606	310.48227	-458.65326	990.75018	312.52652	-535.13263	1007.3998	368.80942	-319.79187	1270.399	-226.73923	-472.91605	1142.6512	-242.51703	-530.11823	1062.2192	-262.0575	-600.85876	1098.7687	-214.065	-722.12244	1063.7926	-171.93999	-717.45563	1003.2573	-183.66969	-807.77026	1023.6535	-164.13953	-11.558647	854.31592	-16.099356	-214.73668	848.27002	-226.39789	83.21505	896.93573	-215.7012	-28.768835	865.16174	-324.255
420	4.19	-310.6983	1455.0612	31.100409	-377.99045	1444.2378	-107.21723	-193.44527	1480.9229	-27.406103	-280.04199	1466.297	-165.71019	-153.83218	1343.4867	-126.85582	-41.835377	1199.7183	-196.57945	-248.57405	1213.5989	-70.907524	-224.78377	1065.6289	-83.576073	-139.97737	1261.7278	-254.17262	-159.07339	1278.7054	59.296555	-182.91542	1221.0055	141.03207	-270.3616	1060.2443	225.48	-408.24677	1072.0585	271.05881	-469.33243	1054.6373	310.41345	-456.27783	989.92773	312.04584	-532.57806	1006.4702	368.59464	-319.01782	1270.5802	-226.7674	-471.72391	1141.9911	-242.74899	-528.58118	1061.2565	-262.51608	-599.30005	1097.5891	-214.36023	-720.31122	1062.3235	-171.89206	-715.50641	1001.8176	-183.5526	-805.8139	1021.8724	-163.88779	-11.427891	854.25598	-16.09185	-214.886	848.35303	-226.10416	83.203896	896.85791	-215.90027	-28.969152	865.12915	-324.27283
421	4.2	-308.83298	1456.0033	31.005217	-376.60349	1445.1848	-107.06206	-191.72685	1481.5295	-27.969475	-278.83621	1466.8484	-165.94139	-152.65921	1343.829	-127.17998	-41.190475	1199.7445	-196.90041	-247.69176	1214.2526	-70.767159	-224.27829	1066.214	-83.384743	-139.04227	1261.9678	-254.42886	-157.50374	1279.2507	59.006218	-181.07431	1221.0516	140.78465	-267.80829	1059.6511	224.95659	-405.62616	1071.3876	270.8764	-466.61404	1053.7501	310.17627	-453.6073	989.11206	311.48117	-529.81073	1005.5053	368.23798	-318.13519	1270.8625	-226.88657	-470.32864	1141.3829	-243.28603	-526.85309	1060.3224	-263.18097	-597.4447	1096.3798	-214.86974	-718.22241	1060.8467	-171.84554	-713.29242	1000.3934	-183.66875	-803.51642	1020.1942	-163.50725	-11.150844	854.29779	-16.078993	-215.03305	848.54041	-225.80959	83.244759	896.77875	-216.08693	-29.134552	865.12476	-324.27008
422	4.21	-306.79636	1457.1967	30.864336	-375.01837	1446.1469	-107.07801	-189.77611	1482.1556	-28.561769	-277.41586	1467.4569	-166.1718	-151.33694	1344.2111	-127.60781	-40.446236	1199.7485	-197.27599	-246.42728	1215.0294	-70.795067	-223.56697	1066.8744	-83.206787	-137.9877	1262.2294	-254.74852	-155.65964	1279.9041	58.750317	-179.02635	1221.1879	140.3871	-264.939	1059.1914	224.48074	-402.88406	1070.7184	270.48483	-463.71072	1052.9369	309.70181	-450.37756	988.28625	310.94589	-526.84851	1004.65	367.7262	-317.06625	1271.1902	-226.97873	-468.71988	1140.6467	-243.95322	-524.85059	1059.3651	-263.94598	-595.45435	1095.2302	-215.21159	-715.86328	1059.4119	-171.81509	-710.75006	999.16577	-183.30806	-800.94537	1018.4106	-162.50851	-10.867065	854.30261	-16.066721	-215.13875	848.80988	-225.42583	83.352745	896.6795	-216.23839	-29.30168	865.15302	-324.26022
